# xmcd
#
# Track frame offsets:
#	150
#	11945
#	25160
#	42357
#	55587
#	73850
#	92750
#	109362
#	119740
#	140110
#	153017
#	164660
#	175770
#	191502
#	205670
#
# Disc length: 2904 seconds
#
# Revision: 2
# Processed by: cddbd v1.4PL0 Copyright (c) Steve Scherf et al.
# Submitted via: CDmax 1.8
#
DISCID=d70b560f
DTITLE=Various Artist - Forever Country: Volume 2
DYEAR=1997
DGENRE=Country
TTITLE0=Tammy Wynette: I Don't Wanna Play House
TTITLE1=Merle Haggard: To All The Girls I've Loved Before
TTITLE2=Dr Hook: Sylvia's Mother
TTITLE3=Tanya Tucker: Delta Dawn
TTITLE4=Johnny Cash: One Piece At a Time
TTITLE5=Ricky Skaggs: Country Boy
TTITLE6=Janie Fricke: Always Have Always Will
TTITLE7=Kris Kristofferson: Help Me Make It Through The Night
TTITLE8=Dolly Parton: The River Unbroken
TTITLE9=Charly McClain: Band Of Gold
TTITLE10=Moe Bandy/Joe Stampley: Just Good Ol' Boys
TTITLE11=Marty Robbins: Singing The Blues
TTITLE12=Willie Nelson: Let It Be Me
TTITLE13=Lynne Anderson: Cry
TTITLE14=Charlie Rich: The Most Beatiful Girl
EXTD=
EXTT0=Tammy Wynette
EXTT1=Merle Haggard
EXTT2=Dr. Hook and The Medicine Show
EXTT3=Tanya Tucker
EXTT4=Johny Cash
EXTT5=Ricky Skaggs
EXTT6=Janie Fricke
EXTT7=Kris Kristofferson
EXTT8=Dolly Parton
EXTT9=Charly McClain
EXTT10=Moe Bandy And Joe Stampley
EXTT11=Marty Robbins
EXTT12=Willie Nelson
EXTT13=Lynn Anderson
EXTT14=Charlie Rich
PLAYORDER=
